<svg xmlns="http://www.w3.org/2000/svg" viewBox="0 0 400 400"><rect width="400" height="400" rx="100" style="fill:#fff"/><path d="M354,204.77a1.41,1.41,0,0,1,0-.2C349,156.64,343.39,120,337.3,95.65,332,74.27,324.35,52.32,308.45,51.6c-13.21-.6-21.21,14.09-26.71,26.94-5.68,13.25-11.52,31.93-17.78,56.92-1.78-.63-3.55-1.26-5.35-1.84-28.66-9.31-52.11-10-58.61-10A182.76,182.76,0,0,0,135.93,135c-6.22-24.76-12-43.29-17.67-56.46C112.76,65.69,104.7,51,91.55,51.6,75.65,52.32,68,74.27,62.7,95.65,56.61,120,51,156.64,46.05,204.57a1.41,1.41,0,0,1,0,.2l0,.59v.46c0,.16,0,.31,0,.47s0,.37.06.55,0,.25,0,.37.07.41.12.61.05.21.08.32.11.41.18.61.07.21.11.32.15.38.23.56.11.23.16.34.17.35.27.52l.2.34c.1.16.2.32.31.47l.24.33c.12.16.24.31.37.46s.15.18.23.26.31.33.48.49l.19.18c.2.17.4.34.61.5l.08.07.08,0,.54.38.18.1q.29.18.57.33l.15.08a10.87,10.87,0,0,0,1.88.71l.35.09.5.1.4.06.32,0h.18l.38,0,.48,0a10.21,10.21,0,0,0,2.22-.26l.05,0a9.32,9.32,0,0,0,1-.3l0,0a9.84,9.84,0,0,0,2-1l.12-.08c.26-.17.51-.35.76-.55l.18-.15a9.87,9.87,0,0,0,.75-.7l0,0a11.21,11.21,0,0,0,.77-.91h0c5.22-7,53.38-68,136-68,8.7,0,86.43,1.91,136,68h0a10.24,10.24,0,0,0,2.12,2.09l.12.08c.22.15.45.3.69.44l.13.08c.24.14.48.26.73.38l.11,0a7.68,7.68,0,0,0,.79.32l.07,0c.28.09.57.18.87.25h0c.3.07.6.13.9.17h.05a8.52,8.52,0,0,0,.87.08h.12l.39,0,.37,0,.3,0,.37,0,.3,0,.31,0,.67-.13.27-.08c.23-.06.46-.12.69-.2l.22-.08c.24-.09.48-.19.71-.3l.17-.08q.38-.18.72-.39l.14-.09a6.58,6.58,0,0,0,.7-.47l.07,0,.08-.07c.21-.16.41-.33.61-.5l.19-.18c.17-.16.32-.32.48-.49a2.85,2.85,0,0,0,.23-.26c.13-.15.25-.3.37-.46l.24-.33c.11-.15.21-.31.31-.47l.2-.34A5.12,5.12,0,0,0,353,210c0-.11.11-.22.16-.34s.16-.37.23-.57.08-.21.11-.31a6.32,6.32,0,0,0,.18-.62c0-.1.06-.21.08-.31s.09-.41.12-.61,0-.24.05-.37,0-.37.06-.55,0-.31,0-.47v-.46ZM91.19,158.72a209.79,209.79,0,0,0-21.84,17.66c3.5-28.65,7.26-51.92,11.22-69.41,5.13-22.7,9.62-31.17,11.81-34.18,1.79,2.14,5.08,7.16,9.51,18.54,4.81,12.39,10,29.78,15.44,51.74A202.47,202.47,0,0,0,91.19,158.72Zm191.46-15.57c5.44-22,10.64-39.42,15.46-51.82,4.43-11.38,7.72-16.4,9.51-18.54,2.19,3,6.68,11.48,11.81,34.18,3.93,17.34,7.65,40.35,11.13,68.66A183.8,183.8,0,0,0,282.65,143.15Z"/><polygon points="200 321.08 148.01 348.41 157.94 290.52 115.88 249.53 174.01 241.08 200 188.41 225.99 241.08 284.12 249.53 242.06 290.52 251.99 348.41 200 321.08" style="fill:#3058d5;stroke:#3058d5;stroke-linejoin:round;stroke-width:20px"/></svg>